<?xml version="1.0" encoding="iso-8859-1"?>
<!-- Generator: Adobe Illustrator 19.0.0, SVG Export Plug-In . SVG Version: 6.00 Build 0)  -->
<svg version="1.1" id="Capa_1" xmlns="http://www.w3.org/2000/svg" xmlns:xlink="http://www.w3.org/1999/xlink" x="0px" y="0px"
	 viewBox="0 0 197.973 197.973" style="enable-background:new 0 0 197.973 197.973;" xml:space="preserve">
<circle style="fill:#FFC107;" cx="98.987" cy="98.987" r="95.573"/>
<path d="M98.987,197.973C44.406,197.973,0,153.568,0,98.987S44.406,0,98.987,0s98.987,44.406,98.987,98.987
	S153.568,197.973,98.987,197.973z M98.987,6.827c-50.818,0-92.16,41.344-92.16,92.16s41.342,92.16,92.16,92.16
	s92.16-41.344,92.16-92.16S149.804,6.827,98.987,6.827z"/>
<path d="M20.48,102.4c-1.884,0-3.413-1.529-3.413-3.413c0-45.172,36.75-81.92,81.92-81.92c1.884,0,3.413,1.529,3.413,3.413
	c0,1.884-1.529,3.413-3.413,3.413c-41.407,0-75.093,33.686-75.093,75.093C23.893,100.871,22.364,102.4,20.48,102.4z"/>
<path d="M94.949,136.977c-1.015-1.053-1.509-2.34-1.478-3.854l0.993-51.246c0.031-1.514,0.573-2.797,1.628-3.854
	c1.056-1.056,2.34-1.57,3.854-1.539c1.594,0.031,2.896,0.577,3.913,1.63c1.015,1.056,1.509,2.381,1.476,3.973l-0.993,51.246
	c-0.031,1.514-0.592,2.78-1.688,3.794c-1.096,1.017-2.4,1.507-3.913,1.476C97.227,138.573,95.964,138.033,94.949,136.977z
	 M95.672,62.78c-1.172-1.22-1.743-2.666-1.708-4.34l0.009-0.476c0.034-1.673,0.657-3.092,1.876-4.26
	c1.219-1.174,2.662-1.743,4.335-1.71l0.717,0.014c1.673,0.034,3.094,0.657,4.267,1.877c1.172,1.213,1.741,2.657,1.707,4.33
	l-0.009,0.476c-0.034,1.673-0.655,3.096-1.874,4.27c-1.219,1.171-2.664,1.743-4.337,1.71l-0.717-0.014
	C98.263,64.623,96.843,63.997,95.672,62.78z"/>
<path d="M153.6,197.973h-47.787c-1.884,0-3.413-1.529-3.413-3.413c0-1.884,1.529-3.413,3.413-3.413H153.6
	c1.884,0,3.413,1.529,3.413,3.413C157.013,196.444,155.484,197.973,153.6,197.973z"/>
<g>
</g>
<g>
</g>
<g>
</g>
<g>
</g>
<g>
</g>
<g>
</g>
<g>
</g>
<g>
</g>
<g>
</g>
<g>
</g>
<g>
</g>
<g>
</g>
<g>
</g>
<g>
</g>
<g>
</g>
</svg>
